<mxfile host="app.diagrams.net" modified="2023-08-16T06:16:27.901Z" agent="Mozilla/5.0 (X11; Linux x86_64) AppleWebKit/537.36 (KHTML, like Gecko) Chrome/115.0.0.0 Safari/537.36" etag="aqPr_og3Bt36xZTPYDhg" version="21.6.8" type="device">
  <diagram name="Page-1" id="njTccWPInEArJguFGqSC">
    <mxGraphModel dx="880" dy="595" grid="1" gridSize="10" guides="1" tooltips="1" connect="1" arrows="1" fold="1" page="1" pageScale="1" pageWidth="1100" pageHeight="850" math="0" shadow="0">
      <root>
        <mxCell id="0" />
        <mxCell id="1" parent="0" />
        <mxCell id="TQb42SCfQ4lKXOC-Ky4v-1" value="" style="rounded=0;whiteSpace=wrap;html=1;" vertex="1" parent="1">
          <mxGeometry x="40" y="80" width="210" height="500" as="geometry" />
        </mxCell>
        <mxCell id="TQb42SCfQ4lKXOC-Ky4v-2" value="" style="rounded=0;whiteSpace=wrap;html=1;" vertex="1" parent="1">
          <mxGeometry x="250" y="80" width="630" height="500" as="geometry" />
        </mxCell>
        <mxCell id="TQb42SCfQ4lKXOC-Ky4v-3" value="STACK" style="text;html=1;strokeColor=none;fillColor=none;align=center;verticalAlign=middle;whiteSpace=wrap;rounded=0;fontFamily=Ubuntu;fontSource=https%3A%2F%2Ffonts.googleapis.com%2Fcss%3Ffamily%3DUbuntu;fontSize=17;fontStyle=1" vertex="1" parent="1">
          <mxGeometry x="115" y="590" width="60" height="30" as="geometry" />
        </mxCell>
        <mxCell id="TQb42SCfQ4lKXOC-Ky4v-4" value="HEAP" style="text;html=1;strokeColor=none;fillColor=none;align=center;verticalAlign=middle;whiteSpace=wrap;rounded=0;fontFamily=Ubuntu;fontSource=https%3A%2F%2Ffonts.googleapis.com%2Fcss%3Ffamily%3DUbuntu;fontSize=17;fontStyle=1" vertex="1" parent="1">
          <mxGeometry x="535" y="590" width="60" height="30" as="geometry" />
        </mxCell>
        <mxCell id="TQb42SCfQ4lKXOC-Ky4v-5" value="main thread" style="shape=hexagon;perimeter=hexagonPerimeter2;whiteSpace=wrap;html=1;fixedSize=1;fontFamily=Ubuntu;fontSource=https%3A%2F%2Ffonts.googleapis.com%2Fcss%3Ffamily%3DUbuntu;fontSize=16;" vertex="1" parent="1">
          <mxGeometry x="90" y="30" width="120" height="40" as="geometry" />
        </mxCell>
        <mxCell id="TQb42SCfQ4lKXOC-Ky4v-6" value="" style="rounded=0;whiteSpace=wrap;html=1;fillColor=#d5e8d4;strokeColor=#82b366;strokeWidth=7;" vertex="1" parent="1">
          <mxGeometry x="40" y="400" width="210" height="180" as="geometry" />
        </mxCell>
        <mxCell id="TQb42SCfQ4lKXOC-Ky4v-7" value="main()" style="text;html=1;strokeColor=none;fillColor=none;align=center;verticalAlign=middle;whiteSpace=wrap;rounded=0;fontFamily=Ubuntu;fontSource=https%3A%2F%2Ffonts.googleapis.com%2Fcss%3Ffamily%3DUbuntu;fontSize=16;rotation=-90;" vertex="1" parent="1">
          <mxGeometry x="-10" y="450" width="60" height="30" as="geometry" />
        </mxCell>
        <mxCell id="TQb42SCfQ4lKXOC-Ky4v-19" style="edgeStyle=orthogonalEdgeStyle;rounded=0;orthogonalLoop=1;jettySize=auto;html=1;entryX=0;entryY=0.5;entryDx=0;entryDy=0;" edge="1" parent="1" source="TQb42SCfQ4lKXOC-Ky4v-8" target="TQb42SCfQ4lKXOC-Ky4v-18">
          <mxGeometry relative="1" as="geometry" />
        </mxCell>
        <mxCell id="TQb42SCfQ4lKXOC-Ky4v-8" value="int[] my1DArray = 0xAF10" style="rounded=0;whiteSpace=wrap;html=1;fontFamily=Ubuntu;fontSource=https%3A%2F%2Ffonts.googleapis.com%2Fcss%3Ffamily%3DUbuntu;fontSize=16;" vertex="1" parent="1">
          <mxGeometry x="40" y="400" width="210" height="60" as="geometry" />
        </mxCell>
        <mxCell id="TQb42SCfQ4lKXOC-Ky4v-28" style="edgeStyle=orthogonalEdgeStyle;rounded=0;orthogonalLoop=1;jettySize=auto;html=1;entryX=0;entryY=0.5;entryDx=0;entryDy=0;" edge="1" parent="1" source="TQb42SCfQ4lKXOC-Ky4v-9" target="TQb42SCfQ4lKXOC-Ky4v-25">
          <mxGeometry relative="1" as="geometry" />
        </mxCell>
        <mxCell id="TQb42SCfQ4lKXOC-Ky4v-9" value="int[][] my2DArray = 0xAF11" style="rounded=0;whiteSpace=wrap;html=1;fontFamily=Ubuntu;fontSource=https%3A%2F%2Ffonts.googleapis.com%2Fcss%3Ffamily%3DUbuntu;fontSize=16;" vertex="1" parent="1">
          <mxGeometry x="40" y="460" width="210" height="60" as="geometry" />
        </mxCell>
        <mxCell id="TQb42SCfQ4lKXOC-Ky4v-10" value="..." style="rounded=0;whiteSpace=wrap;html=1;fontFamily=Ubuntu;fontSource=https%3A%2F%2Ffonts.googleapis.com%2Fcss%3Ffamily%3DUbuntu;fontSize=16;" vertex="1" parent="1">
          <mxGeometry x="40" y="520" width="210" height="60" as="geometry" />
        </mxCell>
        <mxCell id="TQb42SCfQ4lKXOC-Ky4v-11" value="5" style="rounded=0;whiteSpace=wrap;html=1;fontFamily=Ubuntu;fontSource=https%3A%2F%2Ffonts.googleapis.com%2Fcss%3Ffamily%3DUbuntu;fontSize=16;" vertex="1" parent="1">
          <mxGeometry x="390" y="130" width="40" height="40" as="geometry" />
        </mxCell>
        <mxCell id="TQb42SCfQ4lKXOC-Ky4v-12" value="0" style="rounded=0;whiteSpace=wrap;html=1;fontFamily=Ubuntu;fontSource=https%3A%2F%2Ffonts.googleapis.com%2Fcss%3Ffamily%3DUbuntu;fontSize=16;" vertex="1" parent="1">
          <mxGeometry x="430" y="130" width="40" height="40" as="geometry" />
        </mxCell>
        <mxCell id="TQb42SCfQ4lKXOC-Ky4v-13" value="10" style="rounded=0;whiteSpace=wrap;html=1;fontFamily=Ubuntu;fontSource=https%3A%2F%2Ffonts.googleapis.com%2Fcss%3Ffamily%3DUbuntu;fontSize=16;" vertex="1" parent="1">
          <mxGeometry x="470" y="130" width="40" height="40" as="geometry" />
        </mxCell>
        <mxCell id="TQb42SCfQ4lKXOC-Ky4v-14" value="0" style="rounded=0;whiteSpace=wrap;html=1;fontFamily=Ubuntu;fontSource=https%3A%2F%2Ffonts.googleapis.com%2Fcss%3Ffamily%3DUbuntu;fontSize=16;" vertex="1" parent="1">
          <mxGeometry x="510" y="130" width="40" height="40" as="geometry" />
        </mxCell>
        <mxCell id="TQb42SCfQ4lKXOC-Ky4v-15" value="0" style="rounded=0;whiteSpace=wrap;html=1;fontFamily=Ubuntu;fontSource=https%3A%2F%2Ffonts.googleapis.com%2Fcss%3Ffamily%3DUbuntu;fontSize=16;" vertex="1" parent="1">
          <mxGeometry x="550" y="130" width="40" height="40" as="geometry" />
        </mxCell>
        <mxCell id="TQb42SCfQ4lKXOC-Ky4v-16" value="int length = 5" style="rounded=0;whiteSpace=wrap;html=1;fontFamily=Ubuntu;fontSource=https%3A%2F%2Ffonts.googleapis.com%2Fcss%3Ffamily%3DUbuntu;fontSize=16;" vertex="1" parent="1">
          <mxGeometry x="390" y="170" width="200" height="30" as="geometry" />
        </mxCell>
        <mxCell id="TQb42SCfQ4lKXOC-Ky4v-17" value="..." style="rounded=0;whiteSpace=wrap;html=1;fontFamily=Ubuntu;fontSource=https%3A%2F%2Ffonts.googleapis.com%2Fcss%3Ffamily%3DUbuntu;fontSize=16;" vertex="1" parent="1">
          <mxGeometry x="390" y="200" width="200" height="30" as="geometry" />
        </mxCell>
        <mxCell id="TQb42SCfQ4lKXOC-Ky4v-18" value="0xAF10" style="rounded=0;whiteSpace=wrap;html=1;fontFamily=Ubuntu;fontSource=https%3A%2F%2Ffonts.googleapis.com%2Fcss%3Ffamily%3DUbuntu;fontSize=16;fillColor=#d5e8d4;strokeColor=#82b366;" vertex="1" parent="1">
          <mxGeometry x="390" y="100" width="200" height="30" as="geometry" />
        </mxCell>
        <mxCell id="TQb42SCfQ4lKXOC-Ky4v-20" value="null" style="rounded=0;whiteSpace=wrap;html=1;fontFamily=Ubuntu;fontSource=https%3A%2F%2Ffonts.googleapis.com%2Fcss%3Ffamily%3DUbuntu;fontSize=16;" vertex="1" parent="1">
          <mxGeometry x="440" y="320" width="70" height="40" as="geometry" />
        </mxCell>
        <mxCell id="TQb42SCfQ4lKXOC-Ky4v-21" value="0xAF10" style="rounded=0;whiteSpace=wrap;html=1;fontFamily=Ubuntu;fontSource=https%3A%2F%2Ffonts.googleapis.com%2Fcss%3Ffamily%3DUbuntu;fontSize=16;" vertex="1" parent="1">
          <mxGeometry x="510" y="320" width="70" height="40" as="geometry" />
        </mxCell>
        <mxCell id="TQb42SCfQ4lKXOC-Ky4v-22" value="null" style="rounded=0;whiteSpace=wrap;html=1;fontFamily=Ubuntu;fontSource=https%3A%2F%2Ffonts.googleapis.com%2Fcss%3Ffamily%3DUbuntu;fontSize=16;" vertex="1" parent="1">
          <mxGeometry x="580" y="320" width="70" height="40" as="geometry" />
        </mxCell>
        <mxCell id="TQb42SCfQ4lKXOC-Ky4v-23" value="int length = 3" style="rounded=0;whiteSpace=wrap;html=1;fontFamily=Ubuntu;fontSource=https%3A%2F%2Ffonts.googleapis.com%2Fcss%3Ffamily%3DUbuntu;fontSize=16;" vertex="1" parent="1">
          <mxGeometry x="440" y="360" width="210" height="30" as="geometry" />
        </mxCell>
        <mxCell id="TQb42SCfQ4lKXOC-Ky4v-24" value="..." style="rounded=0;whiteSpace=wrap;html=1;fontFamily=Ubuntu;fontSource=https%3A%2F%2Ffonts.googleapis.com%2Fcss%3Ffamily%3DUbuntu;fontSize=16;" vertex="1" parent="1">
          <mxGeometry x="440" y="390" width="210" height="30" as="geometry" />
        </mxCell>
        <mxCell id="TQb42SCfQ4lKXOC-Ky4v-25" value="0xAF11" style="rounded=0;whiteSpace=wrap;html=1;fontFamily=Ubuntu;fontSource=https%3A%2F%2Ffonts.googleapis.com%2Fcss%3Ffamily%3DUbuntu;fontSize=16;fillColor=#d5e8d4;strokeColor=#82b366;" vertex="1" parent="1">
          <mxGeometry x="440" y="290" width="210" height="30" as="geometry" />
        </mxCell>
        <mxCell id="TQb42SCfQ4lKXOC-Ky4v-26" value="int -&amp;gt; int&lt;b&gt;[]&lt;/b&gt;" style="text;html=1;strokeColor=none;fillColor=none;align=center;verticalAlign=middle;whiteSpace=wrap;rounded=0;fontFamily=Ubuntu;fontSource=https%3A%2F%2Ffonts.googleapis.com%2Fcss%3Ffamily%3DUbuntu;fontSize=18;" vertex="1" parent="1">
          <mxGeometry x="620" y="135" width="100" height="30" as="geometry" />
        </mxCell>
        <mxCell id="TQb42SCfQ4lKXOC-Ky4v-27" value="int[] -&amp;gt; int[]&lt;b&gt;[]&lt;/b&gt;" style="text;html=1;strokeColor=none;fillColor=none;align=center;verticalAlign=middle;whiteSpace=wrap;rounded=0;fontFamily=Ubuntu;fontSource=https%3A%2F%2Ffonts.googleapis.com%2Fcss%3Ffamily%3DUbuntu;fontSize=18;" vertex="1" parent="1">
          <mxGeometry x="670" y="320" width="130" height="30" as="geometry" />
        </mxCell>
        <mxCell id="TQb42SCfQ4lKXOC-Ky4v-29" style="edgeStyle=orthogonalEdgeStyle;rounded=0;orthogonalLoop=1;jettySize=auto;html=1;entryX=1;entryY=0.5;entryDx=0;entryDy=0;" edge="1" parent="1" source="TQb42SCfQ4lKXOC-Ky4v-21" target="TQb42SCfQ4lKXOC-Ky4v-18">
          <mxGeometry relative="1" as="geometry">
            <Array as="points">
              <mxPoint x="545" y="270" />
              <mxPoint x="610" y="270" />
              <mxPoint x="610" y="115" />
            </Array>
          </mxGeometry>
        </mxCell>
      </root>
    </mxGraphModel>
  </diagram>
</mxfile>
